PathFileType	4	(X/Y/Z)	S:\OneDrive - The University of Tokyo\ìåëÂéˆã∆\ÉoÉCÉÅÉJ\ë™íË\hirabayashi_2\Trimmed\Trimmed_BarRL0kg1.trc
DataRate	CameraRate	NumFrames	NumMarkers	Units	OrigDataRate	OrigDataStartFrame	OrigNumFrames
200.00	200.00	       14	12	mm	200.00	201	       234
Frame#	Time	BarR0			BarR50			BarR100			BarR130			BarR180			BarR230			BarL0			BarL50			BarL100			BarL130			BarL180			BarL230			
		X1	Y1	Z1	X2	Y2	Z2	X3	Y3	Z3	X4	Y4	Z4	X5	Y5	Z5	X6	Y6	Z6	X7	Y7	Z7	X8	Y8	Z8	X9	Y9	Z9	X10	Y10	Z10	X11	Y11	Z11	X12	Y12	Z12	

201	1.000	-575.99011	2755.46265	1664.50293	-604.88770	2306.34644	1662.47278	-637.34607	1851.96057	1662.12683	-660.73920	1349.47510	1662.11938	-690.08740	902.83167	1662.88940	-713.79443	454.75681	1664.13574	-1113.91516	2808.35718	1664.64233	-1140.93494	2356.55322	1667.99609	-1171.52271	1906.13892	1668.92908	-1199.11047	1404.01831	1669.09802	-1226.86133	952.73145	1668.39783	-1244.75940	506.52325	1667.62378	
202	1.005	-575.99646	2755.47290	1664.49451	-604.88647	2306.33130	1662.47339	-637.31970	1851.93372	1662.12878	-660.75757	1349.44312	1662.12976	-690.09369	902.81549	1662.88562	-713.80048	454.76974	1664.13501	-1113.89905	2808.33594	1664.63489	-1140.91724	2356.55688	1668.01733	-1171.48340	1906.12415	1668.93420	-1199.11584	1404.06958	1669.11560	-1226.84766	952.72931	1668.39893	-1244.74512	506.51608	1667.64063	
203	1.010	-576.00012	2755.45483	1664.50000	-604.88922	2306.32300	1662.45947	-637.32349	1851.94739	1662.13733	-660.75488	1349.42822	1662.14209	-690.08850	902.80438	1662.89307	-713.78387	454.77924	1664.12903	-1113.89758	2808.34033	1664.63794	-1140.90259	2356.58203	1668.00830	-1171.51501	1906.14429	1668.91516	-1199.09607	1404.04077	1669.10107	-1226.86072	952.71655	1668.40601	-1244.76587	506.49500	1667.62830	
204	1.015	-575.99683	2755.46436	1664.49438	-604.90100	2306.33936	1662.45764	-637.28790	1851.95105	1662.14648	-660.75311	1349.42847	1662.11975	-690.09882	902.80554	1662.89587	-713.78802	454.77090	1664.13721	-1113.95081	2808.33740	1664.63293	-1140.89282	2356.58667	1668.00146	-1171.50037	1906.14526	1668.92334	-1199.11914	1403.99805	1669.09277	-1226.84973	952.71826	1668.40820	-1244.74927	506.51431	1667.62598	
205	1.020	-575.99670	2755.43921	1664.50317	-604.88110	2306.33789	1662.46631	-637.32281	1851.95227	1662.12354	-660.73840	1349.46558	1662.10229	-690.09137	902.83423	1662.89465	-713.80707	454.77908	1664.12952	-1113.91748	2808.29785	1664.64380	-1140.91504	2356.57715	1668.00488	-1171.51208	1906.15369	1668.92639	-1199.11914	1404.02771	1669.09412	-1226.85449	952.73999	1668.40430	-1244.74902	506.52640	1667.63208	
206	1.025	-576.00208	2755.46680	1664.49097	-604.90283	2306.34717	1662.47644	-637.34399	1851.95740	1662.12524	-660.75153	1349.44287	1662.12402	-690.08691	902.80670	1662.88843	-713.79266	454.76852	1664.13416	-1113.93372	2808.31763	1664.65271	-1140.89648	2356.55225	1667.99915	-1171.51245	1906.14026	1668.92664	-1199.10913	1404.03345	1669.08716	-1226.85779	952.74109	1668.40698	-1244.75769	506.51749	1667.62891	
207	1.030	-576.00507	2755.48804	1664.48743	-604.88190	2306.35083	1662.47217	-637.33655	1851.94641	1662.11548	-660.74896	1349.41565	1662.13037	-690.09772	902.81903	1662.89087	-713.76923	454.76636	1664.13086	-1113.92761	2808.35840	1664.62781	-1140.91553	2356.55225	1668.00720	-1171.47498	1906.13794	1668.94629	-1199.10901	1404.03320	1669.07739	-1226.84509	952.71637	1668.40662	-1244.74695	506.49527	1667.62354	
208	1.035	-575.99872	2755.45776	1664.49377	-604.90625	2306.34424	1662.46655	-637.32422	1851.94653	1662.13013	-660.74023	1349.44812	1662.11133	-690.07550	902.85547	1662.88708	-713.78394	454.80417	1664.12280	-1113.91077	2808.32178	1664.63464	-1140.91833	2356.58496	1668.00867	-1171.52710	1906.14160	1668.92114	-1199.11682	1404.01843	1669.10486	-1226.85181	952.72949	1668.41626	-1244.75000	506.53400	1667.61987	
209	1.040	-575.99213	2755.46606	1664.48438	-604.86688	2306.34912	1662.45984	-637.35254	1851.92371	1662.13184	-660.73364	1349.45007	1662.12122	-690.08105	902.81531	1662.89221	-713.77740	454.76462	1664.13721	-1113.93311	2808.33032	1664.65503	-1140.91724	2356.55640	1668.01440	-1171.49597	1906.13879	1668.94080	-1199.11462	1404.04456	1669.12109	-1226.85449	952.72858	1668.41504	-1244.73743	506.50323	1667.62292	
210	1.045	-575.99164	2755.46045	1664.50037	-604.90222	2306.34277	1662.47961	-637.33887	1851.96326	1662.12146	-660.74127	1349.41626	1662.10547	-690.09210	902.82971	1662.90125	-713.77606	454.77292	1664.13000	-1113.89233	2808.33374	1664.62695	-1140.93994	2356.55664	1668.01563	-1171.51538	1906.14063	1668.93298	-1199.11743	1404.05090	1669.09094	-1226.84668	952.72150	1668.40796	-1244.75598	506.53287	1667.63147	
211	1.050	-575.98773	2755.46143	1664.50195	-604.88434	2306.32397	1662.47485	-637.33765	1851.92700	1662.13245	-660.76617	1349.45203	1662.11792	-690.08325	902.82104	1662.89148	-713.79230	454.77643	1664.12634	-1113.88940	2808.32666	1664.64368	-1140.92053	2356.58716	1668.00146	-1171.49683	1906.14417	1668.93726	-1199.11475	1404.05408	1669.09448	-1226.85339	952.73047	1668.39880	-1244.75281	506.52231	1667.63196	
212	1.055	-575.99701	2755.45386	1664.49756	-604.88922	2306.33936	1662.47974	-637.32996	1851.93237	1662.13757	-660.75262	1349.43335	1662.11768	-690.09631	902.84686	1662.90417	-713.79163	454.74969	1664.11572	-1113.93311	2808.31616	1664.63721	-1140.92114	2356.54785	1667.99292	-1171.49402	1906.12512	1668.93274	-1199.12769	1403.98853	1669.11292	-1226.86523	952.71954	1668.41675	-1244.75244	506.51239	1667.62292	
213	1.060	-575.98999	2755.47461	1664.50500	-604.87494	2306.35449	1662.47742	-637.33063	1851.95642	1662.12170	-660.75848	1349.43237	1662.12720	-690.10010	902.82642	1662.88562	-713.79242	454.74814	1664.12622	-1113.96790	2808.33862	1664.64050	-1140.92871	2356.56665	1668.01135	-1171.50793	1906.12915	1668.92151	-1199.11865	1404.06274	1669.09497	-1226.85193	952.72821	1668.40491	-1244.74866	506.52249	1667.62756	
214	1.065	-575.99066	2755.46240	1664.49182	-604.86481	2306.33057	1662.47217	-637.33411	1851.95032	1662.12561	-660.73578	1349.44861	1662.11316	-690.07721	902.84070	1662.89795	-713.77710	454.76044	1664.11768	-1113.91223	2808.34497	1664.65198	-1140.88806	2356.58911	1668.00732	-1171.49231	1906.12927	1668.91748	-1199.12329	1404.02502	1669.10425	-1226.85156	952.74658	1668.41028	-1244.75928	506.52325	1667.62939	
